<svg xmlns="http://www.w3.org/2000/svg" xmlns:xlink="http://www.w3.org/1999/xlink" width="175" height="38" viewBox="0 0 175 38">
    <defs>
        <path id="a" d="M.406.346h98.999v37.232H.406z"/>
        <path id="c" d="M0 .346h73.658V29.39H0z"/>
    </defs>
    <g fill="none" fill-rule="evenodd">
        <g transform="translate(75.549 .076)">
            <mask id="b" fill="#fff">
                <use xlink:href="#a"/>
            </mask>
            <path fill="#42B549" d="M17.984 26.523c-1.9 1.908-4.175 2.868-6.81 2.868-2.132 0-3.944-.431-5.793-1.493v-4.375c1.488.997 3.355 1.948 5.2 1.948 3.844 0 6.134-2.618 6.134-6.328 0-3.713-2.369-6.408-6.214-6.408-1.72 0-3.11.61-4.2 1.834-1.166 1.328-1.768 3.224-1.768 5.731v17.278h-.29c-2.118 0-3.837-1.7-3.837-3.795v-14.13c0-5.996 3.707-10.838 10.076-10.838 3.144 0 5.698 1.063 7.635 3.2 1.82 1.996 2.724 4.528 2.724 7.572 0 2.71-.952 5.026-2.857 6.936zm44.677-.145c-1.894 2.01-4.331 3.013-7.287 3.013-3.118 0-5.66-1.065-7.594-3.2-1.82-2.022-2.725-4.554-2.725-7.572 0-5.342 4.17-9.804 9.651-9.804 2.117 0 3.953.44 5.81 1.448v4.42c-1.49-.998-3.357-1.948-5.2-1.948-3.844 0-6.134 2.617-6.134 6.327 0 3.663 2.423 6.409 6.213 6.409 1.716 0 3.13-.638 4.26-1.918 1.124-1.275 1.708-3.146 1.708-5.66V4.141c0-2.096 1.718-3.795 3.838-3.795h.288v18.192c0 3.205-.936 5.827-2.828 7.84zM74.313 6.872c-.434.48-1.055.702-1.813.702-1.416 0-2.428-1.035-2.428-2.424 0-1.424.995-2.384 2.428-2.384 1.382 0 2.43 1.013 2.43 2.384 0 .678-.2 1.26-.617 1.722zm20.965 11.021c0-1.609-.615-2.882-1.854-3.848-1.113-.868-2.506-1.31-4.196-1.31-3.735 0-6.131 2.887-6.131 6.448 0 3.428 2.539 6.288 6.093 6.288 2.469 0 3.79-1.429 5.2-3.206v5.128c-.719.53-1.544 1.11-2.388 1.451-.889.368-1.949.547-3.176.547-5.939 0-9.856-4.866-9.856-10.49 0-2.887.906-5.274 2.731-7.136 1.938-1.971 4.478-2.95 7.588-2.95 5.897 0 10.116 3.349 10.116 9.4v10.773h-.29c-2.12 0-3.837-1.7-3.837-3.795v-7.3zm-56.484-1.155c-.523-1.597-1.176-2.38-2.68-3.21-3.575-1.978-7.094-.296-8.731 3.194l11.41.016zM35.645 29.33c-2.636.553-5.222.127-7.745-1.267-2.46-1.36-4.11-3.384-4.935-6.054-1.67-5.404 1.752-11.426 7.254-12.885 2.727-.722 5.344-.395 7.828.98 4.128 2.281 5.632 5.81 5.37 10.36l-16.625-.034c.245 1.856 1.409 3.308 3.042 4.21 1.657.917 3.18 1.135 4.595.701 1.568-.487 2.841-1.754 3.877-2.933l3.388 2.441c-1.382 2.446-3.265 3.894-6.049 4.48zM70.438 9.218h4.126v19.77h-.29c-2.117 0-3.836-1.7-3.836-3.795V9.218z" mask="url(#b)"/>
        </g>
        <g transform="translate(0 .076)">
            <mask id="d" fill="#fff">
                <use xlink:href="#c"/>
            </mask>
            <path fill="#42B549" d="M6.038 28.988C2.003 28.988 0 26.272 0 22.48V8.093c0-2.096 1.717-3.795 3.837-3.795h.289v4.92h6.971v3.92H4.126v9.796c0 1.666.752 2.134 2.36 2.134h4.611v3.92h-5.06zm23.964-2.5c-2.04 1.934-4.49 2.903-7.336 2.903-2.82 0-5.256-.97-7.294-2.903-2.045-1.94-3.065-4.409-3.065-7.385 0-5.806 4.483-10.288 10.36-10.288 2.82 0 5.262.977 7.314 2.923 2.058 1.953 3.086 4.415 3.086 7.365 0 2.976-1.02 5.445-3.065 7.385zm19.29-12.513c-.605 1.004-1.074 1.725-1.405 2.16-.364.472-.723.85-1.079 1.11 2.868.918 3.936 2.883 3.936 5.811v5.932h-.29c-2.12 0-3.837-1.7-3.837-3.795v-1.735c0-1.895-.858-3.182-2.89-3.182H39.98v8.712h-.289c-2.12 0-3.838-1.7-3.838-3.795V4.14c0-2.096 1.718-3.795 3.838-3.795h.289v15.97h1.22c1.34 0 2.22-.453 2.726-1.31l3.466-5.787 4.702-.004-2.802 4.76zm21.3 12.513c-2.038 1.934-4.489 2.903-7.335 2.903-2.82 0-5.256-.97-7.295-2.903-2.044-1.94-3.064-4.409-3.064-7.385 0-5.806 4.482-10.288 10.359-10.288 2.821 0 5.264.977 7.315 2.923 2.058 1.953 3.086 4.415 3.086 7.365 0 2.976-1.02 5.445-3.066 7.385zm-2.978-11.985c-1.137-1.178-2.583-1.768-4.357-1.768-3.797 0-6.07 2.739-6.07 6.368 0 3.579 2.327 6.368 6.07 6.368 3.745 0 6.07-2.79 6.07-6.368 0-1.9-.577-3.425-1.713-4.6zm-40.591 0c-1.138-1.178-2.582-1.768-4.357-1.768-3.797 0-6.07 2.739-6.07 6.368 0 3.579 2.328 6.368 6.07 6.368 3.744 0 6.071-2.79 6.071-6.368 0-1.9-.576-3.425-1.714-4.6z" mask="url(#d)"/>
        </g>
    </g>
</svg>
